<svg width="81" height="34" viewBox="0 0 81 34" fill="none" xmlns="http://www.w3.org/2000/svg">
<path d="M0.736 34V0.399998H17.296C21.04 0.399998 24.336 1.088 27.184 2.464C30.032 3.808 32.256 5.728 33.856 8.224C35.456 10.72 36.256 13.696 36.256 17.152C36.256 20.64 35.456 23.648 33.856 26.176C32.256 28.672 30.032 30.608 27.184 31.984C24.336 33.328 21.04 34 17.296 34H0.736ZM12.064 25.168H16.816C18.416 25.168 19.808 24.864 20.992 24.256C22.208 23.648 23.152 22.752 23.824 21.568C24.496 20.352 24.832 18.88 24.832 17.152C24.832 15.456 24.496 14.016 23.824 12.832C23.152 11.648 22.208 10.752 20.992 10.144C19.808 9.536 18.416 9.232 16.816 9.232H12.064V25.168ZM40.3923 34V0.399998H49.7043L63.1443 22.336H58.2483L71.3043 0.399998H80.6163L80.7123 34H70.3923L70.2963 15.952H71.9283L63.0002 30.976H58.0083L48.6963 15.952H50.7123V34H40.3923Z" fill="#7D0323"/>
</svg>
